<svg xmlns="http://www.w3.org/2000/svg" xmlns:xlink="http://www.w3.org/1999/xlink" preserveAspectRatio="xMidYMid" width="36" height="36" viewBox="0 0 36 36">
  <defs>
    <style>
      .cls-1 {
        fill: #7c7b7b;
        opacity: 0.6;
        fill-rule: evenodd;
      }
    </style>
  </defs>
  <path d="M32.727,36.000 L3.273,36.000 C1.465,36.000 -0.000,34.628 -0.000,32.936 L-0.000,5.362 C-0.000,3.670 1.465,2.298 3.273,2.298 L7.364,2.298 L7.364,2.298 C7.364,1.029 8.463,0.000 9.818,0.000 C11.174,0.000 12.273,1.029 12.273,2.298 L12.273,2.298 L15.545,2.298 L15.545,2.298 C15.545,1.029 16.644,0.000 18.000,0.000 C19.356,0.000 20.455,1.029 20.455,2.298 L20.455,2.298 L23.727,2.298 L23.727,2.298 C23.727,1.029 24.826,0.000 26.182,0.000 C27.537,0.000 28.636,1.029 28.636,2.298 L28.636,2.298 L32.727,2.298 C34.535,2.298 36.000,3.670 36.000,5.362 L36.000,32.936 C36.000,34.628 34.535,36.000 32.727,36.000 ZM10.636,2.298 C10.636,1.875 10.270,1.532 9.818,1.532 C9.366,1.532 9.000,1.875 9.000,2.298 L9.000,3.830 C9.000,4.253 9.366,4.596 9.818,4.596 C10.270,4.596 10.636,4.253 10.636,3.830 L10.636,2.298 ZM18.818,2.298 C18.818,1.875 18.452,1.532 18.000,1.532 C17.548,1.532 17.182,1.875 17.182,2.298 L17.182,3.830 C17.182,4.253 17.548,4.596 18.000,4.596 C18.452,4.596 18.818,4.253 18.818,3.830 L18.818,2.298 ZM27.000,2.298 C27.000,1.875 26.634,1.532 26.182,1.532 C25.730,1.532 25.364,1.875 25.364,2.298 L25.364,3.830 C25.364,4.253 25.730,4.596 26.182,4.596 C26.634,4.596 27.000,4.253 27.000,3.830 L27.000,2.298 ZM34.364,5.362 C34.364,4.516 33.631,3.830 32.727,3.830 L28.636,3.830 C28.636,5.099 27.537,6.128 26.182,6.128 C24.826,6.128 23.727,5.099 23.727,3.830 L20.455,3.830 C20.455,5.099 19.356,6.128 18.000,6.128 C16.645,6.128 15.546,5.099 15.545,3.830 L12.273,3.830 C12.273,5.099 11.174,6.128 9.818,6.128 C8.463,6.128 7.364,5.099 7.364,3.830 L3.273,3.830 C2.369,3.830 1.636,4.516 1.636,5.362 L1.636,9.191 L34.364,9.191 L34.364,5.362 ZM34.364,10.723 L1.636,10.723 L1.636,32.936 C1.636,33.782 2.369,34.468 3.273,34.468 L32.727,34.468 C33.631,34.468 34.364,33.782 34.364,32.936 L34.364,10.723 ZM26.182,29.106 C24.826,29.106 23.727,28.078 23.727,26.809 C23.727,25.539 24.826,24.511 26.182,24.511 C27.537,24.511 28.636,25.539 28.636,26.809 C28.636,28.078 27.537,29.106 26.182,29.106 ZM26.182,26.043 C25.730,26.043 25.364,26.386 25.364,26.809 C25.364,27.232 25.730,27.575 26.182,27.575 C26.634,27.575 27.000,27.232 27.000,26.809 C27.000,26.386 26.634,26.043 26.182,26.043 ZM26.182,20.681 C24.826,20.681 23.727,19.652 23.727,18.383 C23.727,17.114 24.826,16.085 26.182,16.085 C27.537,16.085 28.636,17.114 28.636,18.383 C28.636,19.652 27.537,20.681 26.182,20.681 ZM26.182,17.617 C25.730,17.617 25.364,17.960 25.364,18.383 C25.364,18.806 25.730,19.149 26.182,19.149 C26.634,19.149 27.000,18.806 27.000,18.383 C27.000,17.960 26.634,17.617 26.182,17.617 ZM18.000,29.106 C16.644,29.106 15.545,28.078 15.545,26.809 C15.545,25.539 16.644,24.511 18.000,24.511 C19.356,24.511 20.455,25.539 20.455,26.809 C20.455,28.078 19.356,29.106 18.000,29.106 ZM18.000,26.043 C17.548,26.043 17.182,26.386 17.182,26.809 C17.182,27.232 17.548,27.575 18.000,27.575 C18.452,27.575 18.818,27.232 18.818,26.809 C18.818,26.386 18.452,26.043 18.000,26.043 ZM18.000,20.681 C16.644,20.681 15.545,19.652 15.545,18.383 C15.545,17.114 16.644,16.085 18.000,16.085 C19.356,16.085 20.455,17.114 20.455,18.383 C20.455,19.652 19.356,20.681 18.000,20.681 ZM18.000,17.617 C17.548,17.617 17.182,17.960 17.182,18.383 C17.182,18.806 17.548,19.149 18.000,19.149 C18.452,19.149 18.818,18.806 18.818,18.383 C18.818,17.960 18.452,17.617 18.000,17.617 ZM9.818,29.106 C8.463,29.106 7.364,28.078 7.364,26.809 C7.364,25.539 8.463,24.511 9.818,24.511 C11.174,24.511 12.273,25.539 12.273,26.809 C12.273,28.078 11.174,29.106 9.818,29.106 ZM9.818,26.043 C9.366,26.043 9.000,26.386 9.000,26.809 C9.000,27.232 9.366,27.575 9.818,27.575 C10.270,27.575 10.636,27.232 10.636,26.809 C10.636,26.386 10.270,26.043 9.818,26.043 ZM9.818,20.681 C8.463,20.681 7.364,19.652 7.364,18.383 C7.364,17.114 8.463,16.085 9.818,16.085 C11.174,16.085 12.273,17.114 12.273,18.383 C12.273,19.652 11.174,20.681 9.818,20.681 ZM9.818,17.617 C9.366,17.617 9.000,17.960 9.000,18.383 C9.000,18.806 9.366,19.149 9.818,19.149 C10.270,19.149 10.636,18.806 10.636,18.383 C10.636,17.960 10.270,17.617 9.818,17.617 Z" class="cls-1"/>
</svg>
